<svg xmlns="http://www.w3.org/2000/svg" viewBox="0 0 32 32"><title>Fullscreen</title><g id="_28-Fullscreen" data-name="28-Fullscreen"><path d="M14,15a1,1,0,0,1-.71-.29l-1-1a1,1,0,0,1,1.42-1.42l1,1a1,1,0,0,1,0,1.42A1,1,0,0,1,14,15Z"/><path d="M18,15a1,1,0,0,1-.71-.29,1,1,0,0,1,0-1.42l1-1a1,1,0,0,1,1.42,1.42l-1,1A1,1,0,0,1,18,15Z"/><path d="M19,20a1,1,0,0,1-.71-.29l-1-1a1,1,0,0,1,1.42-1.42l1,1a1,1,0,0,1,0,1.42A1,1,0,0,1,19,20Z"/><path d="M13,20a1,1,0,0,1-.71-.29,1,1,0,0,1,0-1.42l1-1a1,1,0,0,1,1.42,1.42l-1,1A1,1,0,0,1,13,20Z"/><path d="M14,3a1,1,0,0,1-1,1H5.42l6.29,6.29a1,1,0,0,1,0,1.42,1,1,0,0,1-1.42,0L4,5.42V13a1,1,0,0,1-2,0V3A1,1,0,0,1,3,2H13A1,1,0,0,1,14,3Z"/><path d="M29,14a1,1,0,0,1-1-1V5.42l-6.29,6.29a1,1,0,0,1-1.42,0,1,1,0,0,1,0-1.42L26.58,4H19a1,1,0,0,1,0-2H29a1,1,0,0,1,1,1V13A1,1,0,0,1,29,14Z"/><path d="M18,29a1,1,0,0,1,1-1h7.58l-6.29-6.29a1,1,0,0,1,0-1.42,1,1,0,0,1,1.42,0L28,26.58V19a1,1,0,0,1,2,0V29a1,1,0,0,1-1,1H19A1,1,0,0,1,18,29Z"/><path d="M3,18a1,1,0,0,1,1,1v7.58l6.29-6.29a1,1,0,0,1,1.42,0,1,1,0,0,1,0,1.42L5.42,28H13a1,1,0,0,1,0,2H3a1,1,0,0,1-1-1V19A1,1,0,0,1,3,18Z"/></g></svg>