<?xml version="1.0"?>
<svg xmlns="http://www.w3.org/2000/svg" viewBox="0 0 32 32" width="512" height="512"><g id="_31-Move" data-name="31-Move"><path d="M16,17a1,1,0,0,1-.38-.08,1,1,0,0,1-.33-.21,1,1,0,0,1,0-1.42,1,1,0,0,1,.9-.27.6.6,0,0,1,.19.06.56.56,0,0,1,.17.09l.15.12A1,1,0,0,1,17,16a1,1,0,0,1-.3.71l-.15.12a.56.56,0,0,1-.17.09.6.6,0,0,1-.19.06Zm4.68-8.15A2,2,0,0,1,18.87,10H17v3a1,1,0,0,1-2,0V10H13.13a2,2,0,0,1-1.54-3.28h0l2.87-3.44a2.07,2.07,0,0,1,3.07,0l2.88,3.44A2,2,0,0,1,20.68,8.85ZM18.87,8,16,4.56,13.13,8h5.74Zm10.57,8a2,2,0,0,1-.72,1.53l-3.45,2.88a2,2,0,0,1-1.27.46,2,2,0,0,1-2-2V17H19a1,1,0,0,1,0-2h3V13.13a2,2,0,0,1,3.27-1.54l3.45,2.88A2,2,0,0,1,29.44,16Zm-2,0L24,13.13h0V16s0,0,0,0v2.84Zm-7,9.28h0l-2.86,3.42a2,2,0,0,1-3.08,0L11.6,25.29a2,2,0,0,1-.27-2.14A2,2,0,0,1,13.14,22H15V19a1,1,0,0,1,2,0v3h1.86a2,2,0,0,1,1.54,3.28ZM18.87,24H13.14L16,27.43,18.86,24ZM14,16a1,1,0,0,1-1,1H10v1.86a2,2,0,0,1-1.15,1.82,2.18,2.18,0,0,1-.85.19,2,2,0,0,1-1.28-.47L3.28,17.54A2,2,0,0,1,2.56,16a2,2,0,0,1,.72-1.54L6.72,11.6A2,2,0,0,1,10,13.13V15h3A1,1,0,0,1,14,16ZM8,18.87V13.13L4.56,16,8,18.86Z"/></g></svg>
