<svg height="512" viewBox="0 0 32 32" width="512" xmlns="http://www.w3.org/2000/svg"><g id="_6-Pin" data-name="6-Pin"><path d="m28.91 9.54-6.45-6.45a2.5 2.5 0 0 0 -3.45 0l-.79.79a2.43 2.43 0 0 0 -.28 3.12l-5.28 5.28a7.55 7.55 0 0 0 -7.49 1.82l-1.35 1.35a1 1 0 0 0 0 1.41l4.95 4.95-6.1 6.11a1 1 0 0 0 0 1.41 1 1 0 0 0 1.41 0l6.11-6.1 5 4.95a1 1 0 0 0 1.41 0l1.35-1.35a7.54 7.54 0 0 0 1.83-7.49l5.22-5.28a2.41 2.41 0 0 0 3.11-.28l.79-.79a2.43 2.43 0 0 0 0-3.45zm-11.24 6.34-1.55-1.55a8.24 8.24 0 0 0 -1.51-1.19l4.71-4.7 4.24 4.24-4.7 4.71a8.24 8.24 0 0 0 -1.19-1.51zm-1.19 9.54-.64.63-4.94-4.94-4.9-4.96.63-.63a5.54 5.54 0 0 1 5.59-1.31 6.12 6.12 0 0 1 2.53 1.53l1.56 1.56a6.18 6.18 0 0 1 1.53 2.53 5.53 5.53 0 0 1 -1.36 5.59zm11-13.85-.8.8a.44.44 0 0 1 -.62 0l-.3-.3s0-.08-.07-.12l-5.64-5.65a.83.83 0 0 0 -.12-.08l-.3-.3a.44.44 0 0 1 0-.62l.8-.8a.44.44 0 0 1 .31-.13.47.47 0 0 1 .31.13l6.45 6.5a.44.44 0 0 1 0 .57z"/></g></svg>